<svg width="410" height="278" viewBox="0 0 410 278" fill="none" xmlns="http://www.w3.org/2000/svg">
<path d="M7.21094 180.4H25.6109C26.0109 185.6 27.7443 190.333 30.8109 194.6C34.0109 198.733 38.2776 202 43.6109 204.4C49.0776 206.8 55.4109 208 62.6109 208C68.8776 208 74.0776 207.133 78.2109 205.4C82.3443 203.667 85.4109 201.333 87.4109 198.4C89.5443 195.333 90.6109 191.733 90.6109 187.6C90.6109 183.467 89.4776 180.2 87.2109 177.8C84.9443 175.267 81.5443 173.2 77.0109 171.6C72.4776 169.867 66.8776 168.2 60.2109 166.6C54.3443 165.133 48.5443 163.4 42.8109 161.4C37.2109 159.267 32.0109 156.667 27.2109 153.6C22.5443 150.533 18.7443 146.867 15.8109 142.6C13.0109 138.2 11.6109 132.933 11.6109 126.8C11.6109 120.267 13.4109 114.333 17.0109 109C20.6109 103.533 25.8776 99.2 32.8109 96C39.8776 92.6667 48.4109 91 58.4109 91C73.8776 91 85.5443 94.8667 93.4109 102.6C101.411 110.333 105.278 120.667 105.011 133.6H87.0109C86.6109 124.533 83.7443 118.067 78.4109 114.2C73.0776 110.2 66.1443 108.2 57.6109 108.2C50.2776 108.2 44.0109 109.733 38.8109 112.8C33.6109 115.733 31.0109 120.4 31.0109 126.8C31.0109 129.6 31.6109 132.067 32.8109 134.2C34.0109 136.2 36.0109 138.067 38.8109 139.8C41.6109 141.533 45.3443 143.2 50.0109 144.8C54.8109 146.4 60.7443 148.133 67.8109 150C73.1443 151.2 78.2776 152.733 83.2109 154.6C88.2776 156.467 92.8109 158.8 96.8109 161.6C100.811 164.4 103.944 168 106.211 172.4C108.611 176.8 109.811 182.2 109.811 188.6C109.811 195.4 108.144 201.6 104.811 207.2C101.478 212.667 96.2776 217.067 89.2109 220.4C82.2776 223.6 73.2776 225.2 62.2109 225.2C53.4109 225.2 45.7443 224.067 39.2109 221.8C32.8109 219.533 27.4109 216.6 23.0109 213C18.7443 209.4 15.3443 205.533 12.8109 201.4C10.4109 197.267 8.74427 193.333 7.81094 189.6C7.01094 185.867 6.81094 182.8 7.21094 180.4Z" fill="#FEE32D"/>
<path d="M122.397 139V93.85C122.397 89.85 121.747 86.55 120.447 83.95C119.147 81.35 117.197 79.4 114.597 78.1C111.997 76.7 108.697 76 104.697 76C100.297 76 96.2475 77.05 92.5475 79.15C88.9475 81.15 85.9975 83.9 83.6975 87.4C81.3975 90.8 79.9975 94.65 79.4975 98.95L79.3475 90.4C79.8475 86.5 80.8975 82.85 82.4975 79.45C84.1975 76.05 86.2975 73.1 88.7975 70.6C91.3975 68.1 94.3975 66.15 97.7975 64.75C101.197 63.35 104.897 62.65 108.897 62.65C113.097 62.65 116.897 63.25 120.297 64.45C123.697 65.55 126.597 67.3 128.997 69.7C131.497 72 133.397 74.85 134.697 78.25C135.997 81.55 136.647 85.35 136.647 89.65V139H122.397ZM66.1475 139V34.15H80.3975V139H66.1475ZM157.857 33.25V48.7H140.007V33.25H157.857ZM141.807 64.15H156.057V139H141.807V64.15ZM161.349 64.15H175.749V139H161.349V64.15ZM201.099 76.9C195.899 76.9 191.449 78.1 187.749 80.5C184.149 82.9 181.249 85.85 179.049 89.35C176.949 92.85 175.549 96.2 174.849 99.4L174.699 90.85C174.799 89.85 175.049 88.3 175.449 86.2C175.949 84 176.799 81.55 177.999 78.85C179.199 76.15 180.799 73.6 182.799 71.2C184.799 68.7 187.299 66.65 190.299 65.05C193.299 63.45 196.899 62.65 201.099 62.65V76.9ZM235.234 140.65C227.934 140.65 221.234 139.1 215.134 136C209.034 132.9 204.184 128.45 200.584 122.65C196.984 116.85 195.184 109.9 195.184 101.8C195.184 93.6 196.984 86.6 200.584 80.8C204.184 74.9 209.034 70.4 215.134 67.3C221.234 64.2 227.934 62.65 235.234 62.65C242.534 62.65 249.184 64.2 255.184 67.3C261.184 70.4 265.984 74.9 269.584 80.8C273.184 86.6 274.984 93.6 274.984 101.8C274.984 109.9 273.184 116.85 269.584 122.65C265.984 128.45 261.184 132.9 255.184 136C249.184 139.1 242.534 140.65 235.234 140.65ZM235.234 128.2C239.734 128.2 243.884 127.2 247.684 125.2C251.584 123.1 254.684 120.1 256.984 116.2C259.384 112.2 260.584 107.4 260.584 101.8C260.584 96.1 259.384 91.25 256.984 87.25C254.684 83.25 251.584 80.2 247.684 78.1C243.884 76 239.734 74.95 235.234 74.95C230.734 74.95 226.534 76 222.634 78.1C218.734 80.1 215.584 83.1 213.184 87.1C210.784 91.1 209.584 96 209.584 101.8C209.584 107.4 210.734 112.2 213.034 116.2C215.434 120.1 218.584 123.1 222.484 125.2C226.384 127.2 230.634 128.2 235.234 128.2ZM275.051 64.15H289.451V139H275.051V64.15ZM317.951 62.65C322.151 62.65 325.951 63.25 329.351 64.45C332.751 65.65 335.651 67.45 338.051 69.85C340.451 72.15 342.301 75.05 343.601 78.55C345.001 81.95 345.701 85.85 345.701 90.25V139H331.451V93.4C331.451 87.5 330.001 83.1 327.101 80.2C324.301 77.2 320.001 75.7 314.201 75.7C309.701 75.7 305.601 76.75 301.901 78.85C298.201 80.95 295.151 83.75 292.751 87.25C290.451 90.65 289.051 94.5 288.551 98.8L288.401 90.55C288.901 86.55 289.951 82.85 291.551 79.45C293.251 76.05 295.351 73.1 297.851 70.6C300.451 68 303.451 66.05 306.851 64.75C310.251 63.35 313.951 62.65 317.951 62.65Z" fill="#1F2742"/>
<path d="M97.282 142.15H145.732V154.6H97.282V142.15ZM114.382 122.35H128.632V217H114.382V122.35Z" fill="#1F2742"/>
<path d="M214.349 217H200.099V142.15H214.349V217ZM200.849 181.75L200.999 186.25C200.899 187.55 200.549 189.5 199.949 192.1C199.449 194.6 198.549 197.35 197.249 200.35C196.049 203.35 194.349 206.25 192.149 209.05C190.049 211.85 187.349 214.15 184.049 215.95C180.749 217.75 176.749 218.65 172.049 218.65C168.849 218.65 165.549 218.2 162.149 217.3C158.849 216.4 155.799 214.9 152.999 212.8C150.199 210.7 147.949 207.85 146.249 204.25C144.549 200.55 143.699 195.95 143.699 190.45V142.15H158.099V187.45C158.099 192.05 158.799 195.65 160.199 198.25C161.699 200.85 163.799 202.7 166.499 203.8C169.199 204.9 172.249 205.45 175.649 205.45C180.849 205.45 185.199 204.2 188.699 201.7C192.299 199.1 195.099 196 197.099 192.4C199.099 188.7 200.349 185.15 200.849 181.75Z" fill="#1F2742"/>
<path d="M246.816 218.5C240.316 218.5 234.416 216.85 229.116 213.55C223.816 210.25 219.616 205.7 216.516 199.9C213.516 194 212.016 187.25 212.016 179.65C212.016 172.05 213.516 165.35 216.516 159.55C219.516 153.65 223.616 149.05 228.816 145.75C234.016 142.35 240.016 140.65 246.816 140.65C252.716 140.65 257.616 141.65 261.516 143.65C265.416 145.65 268.466 148.45 270.666 152.05C272.866 155.65 274.416 159.8 275.316 164.5C276.316 169.2 276.816 174.25 276.816 179.65C276.816 183.65 276.316 187.9 275.316 192.4C274.316 196.9 272.716 201.15 270.516 205.15C268.316 209.15 265.266 212.4 261.366 214.9C257.466 217.3 252.616 218.5 246.816 218.5ZM250.866 206.05C256.166 206.05 260.616 204.9 264.216 202.6C267.916 200.2 270.666 197 272.466 193C274.266 189 275.166 184.55 275.166 179.65C275.166 174.35 274.216 169.7 272.316 165.7C270.516 161.7 267.766 158.6 264.066 156.4C260.466 154.2 256.066 153.1 250.866 153.1C243.066 153.1 237.016 155.6 232.716 160.6C228.516 165.6 226.416 171.95 226.416 179.65C226.416 184.85 227.466 189.45 229.566 193.45C231.666 197.35 234.516 200.45 238.116 202.75C241.816 204.95 246.066 206.05 250.866 206.05ZM275.166 112.15H289.566V217H276.366C276.066 214.8 275.766 212.1 275.466 208.9C275.266 205.7 275.166 202.95 275.166 200.65V112.15Z" fill="#1F2742"/>
<path d="M309.829 111.25V126.7H291.979V111.25H309.829ZM293.779 142.15H308.029V217H293.779V142.15Z" fill="#1F2742"/>
<path d="M346.617 218.65C339.317 218.65 332.617 217.1 326.517 214C320.417 210.9 315.567 206.45 311.967 200.65C308.367 194.85 306.567 187.9 306.567 179.8C306.567 171.6 308.367 164.6 311.967 158.8C315.567 152.9 320.417 148.4 326.517 145.3C332.617 142.2 339.317 140.65 346.617 140.65C353.917 140.65 360.567 142.2 366.567 145.3C372.567 148.4 377.367 152.9 380.967 158.8C384.567 164.6 386.367 171.6 386.367 179.8C386.367 187.9 384.567 194.85 380.967 200.65C377.367 206.45 372.567 210.9 366.567 214C360.567 217.1 353.917 218.65 346.617 218.65ZM346.617 206.2C351.117 206.2 355.267 205.2 359.067 203.2C362.967 201.1 366.067 198.1 368.367 194.2C370.767 190.2 371.967 185.4 371.967 179.8C371.967 174.1 370.767 169.25 368.367 165.25C366.067 161.25 362.967 158.2 359.067 156.1C355.267 154 351.117 152.95 346.617 152.95C342.117 152.95 337.917 154 334.017 156.1C330.117 158.1 326.967 161.1 324.567 165.1C322.167 169.1 320.967 174 320.967 179.8C320.967 185.4 322.117 190.2 324.417 194.2C326.817 198.1 329.967 201.1 333.867 203.2C337.767 205.2 342.017 206.2 346.617 206.2Z" fill="#1F2742"/>
<path d="M400.416 201.55V217H382.566V201.55H400.416Z" fill="#FEE32D"/>
</svg>
